<?xml version="1.0" encoding="utf-8"?>
<!-- Generator: Adobe Illustrator 17.0.0, SVG Export Plug-In . SVG Version: 6.00 Build 0)  -->
<!DOCTYPE svg PUBLIC "-//W3C//DTD SVG 1.1//EN" "http://www.w3.org/Graphics/SVG/1.1/DTD/svg11.dtd">
<svg version="1.1" id="Layer_1" xmlns="http://www.w3.org/2000/svg" xmlns:xlink="http://www.w3.org/1999/xlink" x="0px" y="0px"
	 width="144.004px" height="143.939px" viewBox="0 0 144.004 143.939" enable-background="new 0 0 144.004 143.939"
	 xml:space="preserve">
<g>
	<g>
		<g>
			<path id="grey_1_" fill="#FFFFFF" d="M21.349,53.925h21.359v68.721H21.349V53.925z M32.034,19.766
				c6.828,0,12.378,5.549,12.378,12.379c0,6.837-5.55,12.386-12.378,12.386c-6.846,0-12.386-5.549-12.386-12.386
				C19.648,25.315,25.188,19.766,32.034,19.766"/>
			<path id="grey_2_" fill="#FFFFFF" d="M56.106,53.925H76.59v9.391h0.286c2.851-5.403,9.819-11.099,20.209-11.099
				c21.629,0,25.621,14.234,25.621,32.734v37.695h-21.344v-33.42c0-7.969-0.146-18.219-11.099-18.219
				c-11.112,0-12.819,8.68-12.819,17.643v33.996h-21.34V53.925H56.106z"/>
		</g>
	</g>
</g>
</svg>
