<?xml version="1.0" encoding="utf-8"?>
<!-- Generator: Adobe Illustrator 16.0.4, SVG Export Plug-In . SVG Version: 6.00 Build 0)  -->
<!DOCTYPE svg PUBLIC "-//W3C//DTD SVG 1.1//EN" "http://www.w3.org/Graphics/SVG/1.1/DTD/svg11.dtd">
<svg version="1.1" id="Ebene_1" xmlns="http://www.w3.org/2000/svg" xmlns:xlink="http://www.w3.org/1999/xlink" x="0px" y="0px"
	 width="168.957px" height="169.086px" viewBox="0 0 168.957 169.086" enable-background="new 0 0 168.957 169.086"
	 xml:space="preserve">
<circle fill="#BFCC87" cx="84.479" cy="84.479" r="84.479"/>
<path fill="#FFFFFF" d="M85.098,63.515c0.577-0.578,1.161-1.968-0.272-3.337c-1.759-1.678-3.636,0.117-3.636,0.117L65.853,76.062
	l-15.5-16.083c0,0-1.443-1.583-2.709-1.583c-2.39,0-2.453,1.781-2.453,2.479c0,0.625-0.005,1.854-0.005,1.854v43.099
	c0,0,0.142,2.571,2.654,2.571c2.539,0,2.572-2.571,2.572-2.571V67.312l13.524,14.167c0,0,0.771,0.896,1.927,0.896
	c1.219,0,2.047-0.891,2.047-0.891"/>
<path fill="#FFFFFF" d="M120.629,59.438H93.441c0,0-3-0.25-3,2.813v43.812c0,0-0.288,2.856,2.855,2.856h28.582
	c0,0,2.053-0.125,2.053-2.053c0-1.928-1.235-2.923-2.176-2.923H95.629V64.688h24.938c0,0,3.062,0.835,3.062-2.614
	C123.629,59.312,120.629,59.438,120.629,59.438"/>
</svg>
