<?xml version="1.0" encoding="UTF-8" standalone="no"?>
<svg xmlns="http://www.w3.org/2000/svg" height="36px" width="40px" version="1.1" xmlns:xlink="http://www.w3.org/1999/xlink" viewBox="0 0 40 36">
 <defs>
  <linearGradient id="grad" x1="50%" y1="0%" x2="50%" y2="100%">
   <stop stop-color="#F88A36" offset="0%"/>
   <stop stop-color="#FD2020" offset="100%"/>
  </linearGradient>
 </defs>
 <path d="m36.836 24.632c2.226-8.819-3.137-19.158-12.245-24.632 4.048 5.4739 5.667 11.961 4.25 17.739-0.101 0.507-0.303 1.014-0.506 1.521-1.744-1.207-9.816-6.183-19.531-16.016-0.3035-0.3043 5.262 7.907 11.435 14.394-2.934-1.723-11.131-7.603-16.292-12.367 0.6069 1.0138 1.4164 2.0275 2.226 3.1426 4.351 5.5754 9.917 12.265 16.697 17.435-4.756 2.94-11.435 3.142-18.215 0-1.7203-0.71-3.137-1.723-4.655-2.838 2.8335 4.46 7.185 8.413 12.447 10.643 6.274 2.737 12.7 2.767 17.912-0.405 2.226-1.115 6.679-2.332 9.108 2.331 0.506 1.318 1.72-4.764-2.834-10.339 0.101-0.203 0.101-0.406 0.203-0.609z" fill="url(#grad)"/>
</svg>
