<?xml version="1.0" encoding="utf-8"?>
<!-- Generator: Adobe Illustrator 17.0.0, SVG Export Plug-In . SVG Version: 6.00 Build 0)  -->
<!DOCTYPE svg PUBLIC "-//W3C//DTD SVG 1.1//EN" "http://www.w3.org/Graphics/SVG/1.1/DTD/svg11.dtd">
<svg version="1.1" id="svg2268" xmlns:svg="http://www.w3.org/2000/svg"
	 xmlns="http://www.w3.org/2000/svg" xmlns:xlink="http://www.w3.org/1999/xlink" x="0px" y="0px" width="234.639px"
	 height="275.529px" viewBox="789.361 0 234.639 275.529" enable-background="new 789.361 0 234.639 275.529" xml:space="preserve">
<g id="layer1" transform="translate(-194.8708,-324.33481)">
	<path id="grey" fill="#005A5F" d="M1005.585,378.749c-2.393,0-4.407,0.84-5.419,2.484c-1.048,1.698-0.885,3.883,0.226,6.096
		l26.868,46.511c0.045,0.09,0.045,0.145,0,0.226l-42.222,74.509c-1.102,2.195-1.048,4.398,0,6.096
		c1.012,1.635,2.8,2.709,5.193,2.709h39.738c5.943,0,8.806-4.01,10.838-7.677c0,0,41.291-73.027,42.899-75.863
		c-0.162-0.262-27.32-47.64-27.32-47.64c-1.978-3.522-4.967-7.451-11.063-7.451H1005.585z"/>
	<path id="grey" fill="#D4D600" d="M1172.527,324.335c-5.934,0-8.508,3.739-10.639,7.568c0,0-85.608,151.817-88.426,156.802
		c0.144,0.271,56.464,103.59,56.464,103.59c1.969,3.522,5.012,7.568,11.1,7.568h39.693c2.393,0,4.263-0.903,5.274-2.538
		c1.057-1.698,1.03-3.938-0.081-6.141l-56.021-102.352c-0.054-0.081-0.054-0.181,0-0.262l87.983-155.565
		c1.102-2.195,1.129-4.435,0.081-6.132c-1.012-1.635-2.89-2.538-5.283-2.538H1172.527z"/>
</g>
</svg>
